<svg width="30" height="30" viewBox="0 0 30 30" fill="none" xmlns="http://www.w3.org/2000/svg">
<rect width="30" height="30" rx="5" fill="#CC4828"/>
<path d="M7.30156 15.8C7.30156 17.68 8.02156 19.2 9.80156 19.2C11.5816 19.2 12.3016 17.68 12.3016 15.8C12.3016 13.92 11.5816 12.4 9.80156 12.4C8.02156 12.4 7.30156 13.92 7.30156 15.8ZM4.50156 15.8C4.50156 12.76 6.38156 10.3 9.80156 10.3C13.2216 10.3 15.1016 12.76 15.1016 15.8C15.1016 18.84 13.2216 21.3 9.80156 21.3C6.38156 21.3 4.50156 18.84 4.50156 15.8ZM25.5078 18.8V21H15.9078V20.1C15.9078 15.3 22.7078 16.1 22.7078 13.9C22.7078 12.9 21.9078 12.4 20.7078 12.4C19.5078 12.4 18.7078 13.1 18.7078 14.4V14.7H15.9078V14.4C15.9078 11.8 17.9078 10.3 20.8078 10.3C23.5078 10.3 25.5078 11.6 25.5078 13.9C25.5078 17.5 20.3078 17.2 19.1078 18.8H25.5078Z" fill="white"/>
</svg>
