<svg width="30" height="30" viewBox="0 0 30 30" fill="none" xmlns="http://www.w3.org/2000/svg">
<rect width="30" height="30" rx="5" fill="#CC4828"/>
<path d="M7.39141 15.8C7.39141 17.68 8.11141 19.2 9.89141 19.2C11.6714 19.2 12.3914 17.68 12.3914 15.8C12.3914 13.92 11.6714 12.4 9.89141 12.4C8.11141 12.4 7.39141 13.92 7.39141 15.8ZM4.59141 15.8C4.59141 12.76 6.47141 10.3 9.89141 10.3C13.3114 10.3 15.1914 12.76 15.1914 15.8C15.1914 18.84 13.3114 21.3 9.89141 21.3C6.47141 21.3 4.59141 18.84 4.59141 15.8ZM21.407 21H15.507V18.8L21.407 10.6H24.207V18.8H26.607V21H24.207V24.6H21.407V21ZM17.907 18.8H21.407V13.8L17.907 18.8Z" fill="white"/>
</svg>
