<svg width="30" height="30" viewBox="0 0 30 30" fill="none" xmlns="http://www.w3.org/2000/svg">
<rect width="30" height="30" rx="5" fill="#CC4828"/>
<path d="M9.2 15.8C9.2 17.68 9.92 19.2 11.7 19.2C13.48 19.2 14.2 17.68 14.2 15.8C14.2 13.92 13.48 12.4 11.7 12.4C9.92 12.4 9.2 13.92 9.2 15.8ZM6.4 15.8C6.4 12.76 8.28 10.3 11.7 10.3C15.12 10.3 17 12.76 17 15.8C17 18.84 15.12 21.3 11.7 21.3C8.28 21.3 6.4 18.84 6.4 15.8ZM22.7063 10.6V21H19.9062V14.2H17.6063V12.8C20.5063 12.8 21.0063 10.6 21.0063 10.6H22.7063Z" fill="white"/>
</svg>
