<svg width="30" height="30" viewBox="0 0 30 30" fill="none" xmlns="http://www.w3.org/2000/svg">
<rect width="30" height="30" rx="5" fill="#CC4828"/>
<path d="M7.59648 15.8C7.59648 17.68 8.31648 19.2 10.0965 19.2C11.8765 19.2 12.5965 17.68 12.5965 15.8C12.5965 13.92 11.8765 12.4 10.0965 12.4C8.31648 12.4 7.59648 13.92 7.59648 15.8ZM4.79648 15.8C4.79648 12.76 6.67648 10.3 10.0965 10.3C13.5165 10.3 15.3965 12.76 15.3965 15.8C15.3965 18.84 13.5165 21.3 10.0965 21.3C6.67648 21.3 4.79648 18.84 4.79648 15.8ZM16.0027 20H18.8027C18.8027 21.6 19.5027 22.8 21.3027 22.8C22.6827 22.8 23.5027 21.9 23.5027 20.6C23.5027 19.1 22.7027 18.4 21.0027 18.4H19.8227V16.2H21.0027C22.5027 16.2 23.2027 15.5 23.2027 14.3C23.2027 13.3 22.6027 12.4 21.1027 12.4C19.5027 12.4 19.0027 13.5 19.0027 14.7H16.4027C16.4027 12.4 17.7027 10.3 21.1027 10.3C24.4027 10.3 25.9027 12.1 25.9027 14.1C25.9027 16.5 24.0027 17.1 24.0027 17.1V17.2C24.0027 17.2 26.3027 17.7 26.3027 20.5C26.3027 22.8 24.7027 24.9 21.3027 24.9C17.5027 24.9 16.0027 22.6 16.0027 20Z" fill="white"/>
</svg>
